<svg xmlns="http://www.w3.org/2000/svg" xmlns:xlink="http://www.w3.org/1999/xlink" width="170" height="170" viewBox="0 0 170 170">
  <defs>
    <path id="path-1" d="M34.5014742,22.2346282 L35.7456815,17.5911836 C36.8892159,13.3234547 41.2759116,10.7907948 45.5436404,11.9343293 L60.4466038,15.9275663 L70.713997,5.66017313 C73.8381913,2.5359788 78.9035112,2.5359788 82.0277055,5.66017313 L85.2551831,8.88765077 L89.2080198,6.60547945 C93.0343608,4.39634045 97.9270841,5.70734169 100.136223,9.53368268 L102.332032,13.3369361 L106.690988,12.1689575 C110.958717,11.025423 115.345412,13.5580829 116.488947,17.8258118 L117.670286,22.2346282 L122.234628,22.2346282 C126.652906,22.2346282 130.234628,25.8163502 130.234628,30.2346282 L130.234628,34.6272111 L134.408816,35.7456815 C138.676545,36.8892159 141.209205,41.2759116 140.065671,45.5436404 L136.229174,59.8616415 L147.081529,70.713997 C150.205724,73.8381913 150.205724,78.9035112 147.081529,82.0277055 L143.854052,85.2551831 L146.136223,89.2080198 C148.345362,93.0343608 147.034361,97.9270841 143.20802,100.136223 L139.168821,102.468255 L140.300299,106.690988 C141.443833,110.958717 138.911173,115.345412 134.643445,116.488947 L130.234628,117.670286 L130.234628,122.234628 C130.234628,126.652906 126.652906,130.234628 122.234628,130.234628 L117.372789,130.234628 L116.254319,134.408816 C115.110784,138.676545 110.724088,141.209205 106.45636,140.065671 L92.7233208,136.385914 L82.0277055,147.081529 C78.9035112,150.205724 73.8381913,150.205724 70.713997,147.081529 L67.4865194,143.854052 L63.5336827,146.136223 C59.7073417,148.345362 54.8146184,147.034361 52.6054794,143.20802 L50.2369462,139.1056 L45.7782686,140.300299 C41.5105398,141.443833 37.1238441,138.911173 35.9803097,134.643445 L34.7989708,130.234628 L30.2346282,130.234628 C25.8163502,130.234628 22.2346282,126.652906 22.2346282,122.234628 L22.2346282,117.498526 L17.5911836,116.254319 C13.3234547,115.110784 10.7907948,110.724088 11.9343293,106.45636 L15.7708261,92.1383585 L5.66017313,82.0277055 C2.5359788,78.9035112 2.5359788,73.8381913 5.66017313,70.713997 L8.88765077,67.4865194 L6.60547945,63.5336827 C4.39634045,59.7073417 5.70734169,54.8146184 9.53368268,52.6054794 L13.4001574,50.3731692 L12.1689575,45.7782686 C11.025423,41.5105398 13.5580829,37.1238441 17.8258118,35.9803097 L22.2346282,34.7989708 L22.2346282,30.2346282 C22.2346282,25.8163502 25.8163502,22.2346282 30.2346282,22.2346282 L34.5014742,22.2346282 Z"/>
    <filter id="filter-2" width="109.6%" height="109.6%" x="-4.8%" y="-4.8%" filterUnits="objectBoundingBox">
      <feMorphology in="SourceAlpha" operator="dilate" radius="1" result="shadowSpreadOuter1"/>
      <feOffset in="shadowSpreadOuter1" result="shadowOffsetOuter1"/>
      <feGaussianBlur in="shadowOffsetOuter1" result="shadowBlurOuter1" stdDeviation="2"/>
      <feComposite in="shadowBlurOuter1" in2="SourceAlpha" operator="out" result="shadowBlurOuter1"/>
      <feColorMatrix in="shadowBlurOuter1" values="0 0 0 0 0   0 0 0 0 0   0 0 0 0 0  0 0 0 0.202250874 0"/>
    </filter>
  </defs>
  <g fill="none" fill-rule="evenodd" class="svg-bem-logo">
    <rect width="170" height="170" fill="#FFF" class="background-plate"/>
    <g class="svg-bem-logo__colors" transform="translate(10 10)">
      <g class="svg-bem-logo__colors__colors-bg">
        <use fill="#000" filter="url(#filter-2)" xlink:href="#path-1"/>
        <use fill="#FFF" stroke="#FFF" stroke-width="2" xlink:href="#path-1"/>
      </g>
      <rect width="108" height="108" x="22.235" y="22.235" fill="#9DF45A" class="svg-bem-logo__colors__color-a" opacity=".598" rx="8" style="mix-blend-mode:multiply"/>
      <rect width="108" height="108" x="22.235" y="22.235" fill="#F45ADA" class="svg-bem-logo__colors__color-b" opacity=".598" rx="8" transform="rotate(-15 76.235 76.235)" style="mix-blend-mode:multiply"/>
      <rect width="108" height="108" x="22.371" y="22.371" fill="#F45A5A" class="svg-bem-logo__colors__color-c" opacity=".598" rx="8" transform="rotate(-30 76.37 76.37)" style="mix-blend-mode:multiply"/>
      <rect width="108" height="108" x="22.371" y="22.371" fill="#F2DA0F" class="svg-bem-logo__colors__color-d" opacity=".598" rx="8" transform="rotate(-45 76.37 76.37)" style="mix-blend-mode:multiply"/>
      <rect width="108" height="108" x="22" y="22" fill="#5AE3F4" class="svg-bem-logo__colors__color-e" rx="8" transform="rotate(-75 76 76)" style="mix-blend-mode:multiply"/>
      <rect width="106" height="106" x="23" y="23" stroke="#FFF" stroke-width="2" class="svg-bem-logo__colors__color-f" opacity="0" rx="8" transform="rotate(-75 76 76)"/>
    </g>
    <g fill="#FFF" fill-rule="nonzero" class="svg-bem-logo__name" transform="translate(53 56)">
      <path d="M10.1236756,24.7686907 C5.17201395,24.7686907 1.99829794,22.8544816 1.03455171,20.3129266 C0.868388572,19.894696 0.768690687,19.4442939 0.768690687,19.0099776 C0.768690687,17.7231143 1.68258797,16.8705674 2.97866048,16.8705674 C4.00887196,16.8705674 4.69014084,17.2566263 5.28832815,18.286117 C6.06929492,20.055554 7.94693842,20.8598435 10.2399898,20.8598435 C12.9318327,20.8598435 14.7596272,19.6051518 14.7596272,17.900058 C14.7596272,16.3719078 13.6297179,15.5032751 10.622165,14.9081009 L8.07986893,14.4255271 C3.29437045,13.5086371 0.951470143,11.2887979 0.951470143,7.83035289 C0.951470143,3.58370409 4.77322241,0.768690687 10.1070593,0.768690687 C14.4937662,0.768690687 17.8004127,2.55421348 18.8638569,5.57834216 C18.980171,5.90005798 19.0466363,6.23785959 19.0466363,6.65609015 C19.0466363,7.81426709 18.182588,8.60247085 16.9031318,8.60247085 C15.7732224,8.60247085 15.0753372,8.16815449 14.5103825,7.17083546 C13.7127994,5.41748425 12.1674822,4.69362366 10.1070593,4.69362366 C7.63122845,4.69362366 5.98621335,5.81962902 5.98621335,7.52472286 C5.98621335,8.95635825 7.13273903,9.84107675 9.97412875,10.3879936 L12.4998085,10.8866532 C17.5844007,11.8678864 19.7777541,13.8464387 19.7777541,17.3692269 C19.7777541,21.9054199 16.1055487,24.7686907 10.1236756,24.7686907 Z M32.1236756,24.6882617 C30.1629505,24.6882617 28.9998085,23.8518006 28.2686907,21.8732483 L21.5889324,4.51667996 C21.4227692,4.06627782 21.3396877,3.61587567 21.3396877,3.14938774 C21.3396877,1.78209551 22.4031318,0.849119641 23.9816816,0.849119641 C25.3276031,0.849119641 26.1251862,1.4442939 26.540594,2.76332876 L32.1569082,19.3799507 L32.2732224,19.3799507 L37.8729203,2.71507138 C38.2883281,1.41212232 39.0360623,0.849119641 40.3487511,0.849119641 C41.877452,0.849119641 42.9242798,1.76600972 42.9242798,3.08504457 C42.9242798,3.51936093 42.8411982,3.95367728 42.6750351,4.38799364 L35.9620442,21.8893341 C35.2309263,23.8518006 34.0677843,24.6882617 32.1236756,24.6882617 Z M56.1342496,24.7686907 C48.9726182,24.7686907 44.5859112,20.2485834 44.5859112,12.7043475 C44.5859112,5.27271213 48.9726182,0.768690687 56.0179354,0.768690687 C60.6206544,0.768690687 64.2263946,2.8598435 65.5723161,5.70702849 C65.8547934,6.27003117 65.937875,6.73651911 65.937875,7.20300704 C65.937875,8.44161294 65.0572103,9.29415986 63.7445215,9.29415986 C62.6810774,9.29415986 61.9333433,8.8598435 61.3185396,7.87861026 C60.1387813,5.80354323 58.3940683,4.79013841 56.0345517,4.79013841 C52.0798689,4.79013841 49.703736,7.70166656 49.703736,12.6400044 C49.703736,17.6748569 52.2294158,20.747243 56.2173312,20.747243 C59.4907451,20.747243 61.7671801,18.8008623 61.866878,15.9215057 L61.8834943,15.5515325 L58.3940683,15.5515325 C57.1976937,15.5515325 56.3834943,14.8920151 56.3834943,13.7820955 C56.3834943,12.6721759 57.1810774,12.0126585 58.3940683,12.0126585 L64.2596272,12.0126585 C65.8381771,12.0126585 66.7686907,12.9456344 66.7686907,14.5381277 L66.7686907,14.8920151 C66.7686907,20.7955003 62.8970895,24.7686907 56.1342496,24.7686907 Z" class="svg-bem-logo__name__svg"/>
      <path d="M1.92690318,57.5307573 C1.21153664,57.5307573 0.768690687,57.0718858 0.768690687,56.3240952 L0.768690687,34.2132862 C0.768690687,33.4654956 1.21153664,33.0066241 1.92690318,33.0066241 L9.60857724,33.0066241 C13.8326463,33.0066241 16.6941125,35.4369436 16.6941125,39.05693 C16.6941125,41.7761686 14.8205335,44.1045167 12.1975228,44.5803834 L12.1975228,44.6993501 C15.6040302,45.1072359 17.9715528,47.4015935 17.9715528,50.8006417 C17.9715528,54.9814711 14.8545985,57.5307573 9.65967485,57.5307573 L1.92690318,57.5307573 Z M3.08511568,43.9005738 L8.43333221,43.9005738 C12.1634577,43.9005738 14.3436224,42.2010496 14.3436224,39.3118586 C14.3436224,36.6436057 12.3848807,35.0630483 9.11463367,35.0630483 L3.08511568,35.0630483 L3.08511568,43.9005738 Z M3.08511568,55.4743331 L9.33605665,55.4743331 C13.3557353,55.4743331 15.5869976,53.7238232 15.5869976,50.6816751 C15.5869976,47.6225316 13.2705726,45.9060122 9.02947099,45.9060122 L3.08511568,45.9060122 L3.08511568,55.4743331 Z M22.9494333,57.5307573 C22.2340667,57.5307573 21.7912208,57.0718858 21.7912208,56.3240952 L21.7912208,34.2132862 C21.7912208,33.4654956 22.2340667,33.0066241 22.9494333,33.0066241 L35.7408683,33.0066241 C36.4051373,33.0066241 36.8650158,33.4315051 36.8650158,34.060329 C36.8650158,34.6721577 36.4051373,35.114034 35.7408683,35.114034 L24.1076458,35.114034 L24.1076458,43.9345642 L35.127697,43.9345642 C35.791966,43.9345642 36.2348119,44.3594453 36.2348119,44.971274 C36.2348119,45.5831027 35.791966,46.0079837 35.127697,46.0079837 L24.1076458,46.0079837 L24.1076458,55.4233474 L35.7408683,55.4233474 C36.4051373,55.4233474 36.8650158,55.8652237 36.8650158,56.4770523 C36.8650158,57.1058763 36.4051373,57.5307573 35.7408683,57.5307573 L22.9494333,57.5307573 Z M42.183547,57.7686907 C41.5022455,57.7686907 41.0934647,57.3438097 41.0934647,56.6300095 L41.0934647,34.196291 C41.0934647,33.3295337 41.6725709,32.7686907 42.5412303,32.7686907 C43.324727,32.7686907 43.7846055,33.142586 44.1422887,33.9753528 L52.8799801,54.4716139 L52.9821753,54.4716139 L61.6858015,33.9753528 C62.0434848,33.142586 62.5374284,32.7686907 63.3209251,32.7686907 C64.1895844,32.7686907 64.7686907,33.3295337 64.7686907,34.196291 L64.7686907,56.6300095 C64.7686907,57.3438097 64.3599098,57.7686907 63.6786083,57.7686907 C62.9973069,57.7686907 62.588526,57.3438097 62.588526,56.6300095 L62.588526,37.4083916 L62.4863308,37.4083916 L54.3447782,56.4430619 C54.0381926,57.156862 53.6123791,57.4627763 52.9310777,57.4627763 C52.2497762,57.4627763 51.8069303,57.156862 51.5173771,56.4770523 L43.3758246,37.4083916 L43.2736294,37.4083916 L43.2736294,56.6300095 C43.2736294,57.3438097 42.8478159,57.7686907 42.183547,57.7686907 Z" class="svg-bem-logo__name__bem"/>
    </g>
  </g>
</svg>
